<svg width="375" xmlns="http://www.w3.org/2000/svg" height="812" id="screenshot-f328201f-f02a-80eb-8007-7f7682305c42" viewBox="0 0 375 812" xmlns:xlink="http://www.w3.org/1999/xlink" fill="none" version="1.1"><g id="shape-f328201f-f02a-80eb-8007-7f7682305c42"><defs><clipPath id="frame-clip-f328201f-f02a-80eb-8007-7f7682305c42-render-1" class="frame-clip frame-clip-def"><rect rx="0" ry="0" x="0" y="0" width="375" height="812" transform="matrix(1.000000, 0.000000, 0.000000, 1.000000, 0.000000, 0.000000)"/></clipPath></defs><g class="frame-container-wrapper" opacity="1"><g class="frame-container-blur"><g class="frame-container-shadows"><g clip-path="url(#frame-clip-f328201f-f02a-80eb-8007-7f7682305c42-render-1)" fill="none"><g class="fills" id="fills-f328201f-f02a-80eb-8007-7f7682305c42"><rect width="375" height="812" class="frame-background" x="0" transform="matrix(1.000000, 0.000000, 0.000000, 1.000000, 0.000000, 0.000000)" style="fill: rgb(255, 255, 255); fill-opacity: 1;" ry="0" rx="0" y="0"/></g><g class="frame-children"><g id="shape-f328201f-f02a-80eb-8007-7f76823170de" style="opacity: 1;"><g class="fills" id="fills-f328201f-f02a-80eb-8007-7f76823170de"><rect rx="0" ry="0" x="0" y="359" transform="matrix(1.000000, 0.000000, 0.000000, 1.000000, 0.000000, 0.000000)" width="375" height="453" style="fill: rgb(254, 215, 102); fill-opacity: 1;"/></g></g><g id="shape-f328201f-f02a-80eb-8007-7f76823170df" style="opacity: 1;"><defs><linearGradient id="fill-color-gradient-render-3-0" x1="0.38933334096256267" y1="-0.6111110637643624" x2="-0.4733333180571465" y2="0.21851827396235546" gradientTransform=""><stop offset="0.18825781345367432" stop-color="#ffffff" stop-opacity="0.3799999952316284"/><stop offset="0.9275708794593811" stop-color="#ffffff" stop-opacity="0"/></linearGradient><pattern patternUnits="userSpaceOnUse" x="0" y="683" width="375" height="135" id="fill-0-render-3"><g><rect width="375" height="135" style="fill: rgb(23, 86, 188); fill-opacity: 0.85;"/><rect width="375" height="135" style="fill: url(&quot;#fill-color-gradient-render-3-0&quot;); fill-opacity: 1;"/></g></pattern></defs><g class="fills" id="fills-f328201f-f02a-80eb-8007-7f76823170df"><rect rx="0" ry="0" x="0" y="683" transform="matrix(1.000000, 0.000000, 0.000000, 1.000000, 0.000000, 0.000000)" width="375" height="135" fill="url(#fill-0-render-3)"/></g></g><g id="shape-f328201f-f02a-80eb-8007-7f76823170e0" style="opacity: 1;"><g class="fills" id="fills-f328201f-f02a-80eb-8007-7f76823170e0"><rect rx="0" ry="0" x="0" y="0" transform="matrix(1.000000, 0.000000, 0.000000, 1.000000, 0.000000, 0.000000)" width="375" height="359" style="fill: rgb(15, 2, 24); fill-opacity: 0.931398;"/></g></g><g id="shape-f328201f-f02a-80eb-8007-7f76823170e1" style="opacity: 1;"><defs><radialGradient id="fill-color-gradient-render-5-0" cx="0.42248581465797036" cy="0.2909316585817816" r="6.461763195518085" gradientTransform="matrix(-0.998099, 0.061629, -0.061629, -0.998099, 0.862098, 0.555273)"><stop offset="0.3491016626358032" stop-color="#ffffff" stop-opacity="0.34"/><stop offset="1" stop-color="#ffffff" stop-opacity="0"/></radialGradient><pattern patternUnits="userSpaceOnUse" x="0" y="601.9998075053252" width="375" height="91.00019249467482" patternTransform="matrix(1.000000, 0.000000, 0.000000, 1.000000, 0.000000, 0.000000)" id="fill-0-render-5"><g><rect width="375" height="91.00019249467482" style="fill: rgb(23, 86, 188); fill-opacity: 1;"/><rect width="375" height="91.00019249467482" style="fill: url(&quot;#fill-color-gradient-render-5-0&quot;); fill-opacity: 1;"/></g></pattern></defs><g class="fills" id="fills-f328201f-f02a-80eb-8007-7f76823170e1"><path d="M0,666.2349853515625L10,666.2349853515625C21,666.2349853515625,42,666.2349853515625,63,653.4339599609375C83,640.633056640625,104,613.8680419921875,125,605.7220458984375C146,596.4129638671875,167,605.7220458984375,188,620.8509521484375C208,635.97900390625,229,658.0889892578125,250,658.0889892578125C271,658.0889892578125,292,635.97900390625,313,631.323974609375C333,627.8330078125,354,640.633056640625,365,646.4520263671875L375,653.4339599609375L375,693L365,693C354,693,333,693,313,693C292,693,271,693,250,693C229,693,208,693,188,693C167,693,146,693,125,693C104,693,83,693,63,693C42,693,21,693,10,693L0,693L0,666.2349853515625ZZ" fill="url(#fill-0-render-5)" fill-rule="evenodd"/></g><g fill-rule="evenodd" id="strokes-add8f606-cf41-80d8-8007-7f77df7a971a-f328201f-f02a-80eb-8007-7f76823170e1" class="strokes"><g class="stroke-shape"><path d="M0,666.2349853515625L10,666.2349853515625C21,666.2349853515625,42,666.2349853515625,63,653.4339599609375C83,640.633056640625,104,613.8680419921875,125,605.7220458984375C146,596.4129638671875,167,605.7220458984375,188,620.8509521484375C208,635.97900390625,229,658.0889892578125,250,658.0889892578125C271,658.0889892578125,292,635.97900390625,313,631.323974609375C333,627.8330078125,354,640.633056640625,365,646.4520263671875L375,653.4339599609375L375,693L365,693C354,693,333,693,313,693C292,693,271,693,250,693C229,693,208,693,188,693C167,693,146,693,125,693C104,693,83,693,63,693C42,693,21,693,10,693L0,693L0,666.2349853515625ZZ" style="fill: none; stroke-width: 0; stroke: rgb(0, 0, 0); stroke-opacity: 1;"/></g></g></g><g id="shape-f328201f-f02a-80eb-8007-7f76823170e2" style="opacity: 1;"><defs><linearGradient id="fill-color-gradient-render-6-0" x1="0.49999999999999994" y1="-3.0616171314629196e-17" x2="0.49999999999999994" y2="0.9999999999999999" gradientTransform=""><stop offset="0" stop-color="#ffffff" stop-opacity="1"/><stop offset="1" stop-color="#ffffff" stop-opacity="0"/></linearGradient><pattern patternUnits="userSpaceOnUse" x="-2" y="257" width="375" height="102" patternTransform="matrix(1.000000, 0.000000, 0.000000, 1.000000, 0.000000, 0.000000)" id="fill-0-render-6"><g><rect width="375" height="102" style="fill: rgb(225, 182, 58); fill-opacity: 1;"/><rect width="375" height="102" style="fill: url(&quot;#fill-color-gradient-render-6-0&quot;); fill-opacity: 1;"/></g></pattern></defs><g class="fills" id="fills-f328201f-f02a-80eb-8007-7f76823170e2"><path d="M-2,257L14,269C29,280,61,303,92,318C123,333,154,340,186,331C217,321,248,295,279,295C311,295,342,321,357,335L373,348L373,359L357,359C342,359,311,359,279,359C248,359,217,359,186,359C154,359,123,359,92,359C61,359,29,359,14,359L-2,359L-2,257ZZ" fill="url(#fill-0-render-6)" fill-rule="evenodd"/></g><g fill-rule="evenodd" id="strokes-add8f606-cf41-80d8-8007-7f77df7b6a29-f328201f-f02a-80eb-8007-7f76823170e2" class="strokes"><g class="stroke-shape"><path d="M-2,257L14,269C29,280,61,303,92,318C123,333,154,340,186,331C217,321,248,295,279,295C311,295,342,321,357,335L373,348L373,359L357,359C342,359,311,359,279,359C248,359,217,359,186,359C154,359,123,359,92,359C61,359,29,359,14,359L-2,359L-2,257ZZ" style="fill: none; stroke-width: 0; stroke: rgb(0, 0, 0); stroke-opacity: 1;"/></g></g></g><g id="shape-f328201f-f02a-80eb-8007-7f76823170e3" style="opacity: 1;"><defs><radialGradient id="fill-color-gradient-render-7-0" cx="0.5013333661998471" cy="-0.1424245808903719" r="1.6296850671301752" gradientTransform="matrix(0.999807, 0.019636, -0.019636, 0.999807, -0.002700, -0.009871)"><stop offset="0" stop-color="#ffffff" stop-opacity="0.8799999952316284"/><stop offset="1" stop-color="#ffffff" stop-opacity="0"/></radialGradient><pattern patternUnits="userSpaceOnUse" x="-2" y="665.9999819272739" width="375" height="94.78701807272614" patternTransform="matrix(1.000000, 0.000000, 0.000000, 1.000000, 0.000000, 0.000000)" id="fill-0-render-7"><g><rect width="375" height="94.78701807272614" style="fill: rgb(23, 86, 188); fill-opacity: 1;"/><rect width="375" height="94.78701807272614" style="fill: url(&quot;#fill-color-gradient-render-7-0&quot;); fill-opacity: 1;"/></g></pattern></defs><g class="fills" id="fills-f328201f-f02a-80eb-8007-7f76823170e3"><path d="M-2,692.7869873046875L5,700.7869873046875C12,707.7869873046875,26,722.7869873046875,40,715.7869873046875C54,707.7869873046875,67,677.7869873046875,81,673.7869873046875C95,670.7869873046875,109,692.7869873046875,123,702.7869873046875C137,711.7869873046875,151,707.7869873046875,165,698.7869873046875C179,688.7869873046875,192,673.7869873046875,206,673.7869873046875C220,673.7869873046875,234,688.7869873046875,248,688.7869873046875C262,688.7869873046875,276,673.7869873046875,290,668.7869873046875C304,662.7869873046875,317,666.7869873046875,331,677.7869873046875C345,688.7869873046875,359,707.7869873046875,366,717.7869873046875L373,726.7869873046875L373,760.7869873046875L366,760.7869873046875C359,760.7869873046875,345,760.7869873046875,331,760.7869873046875C317,760.7869873046875,304,760.7869873046875,290,760.7869873046875C276,760.7869873046875,262,760.7869873046875,248,760.7869873046875C234,760.7869873046875,220,760.7869873046875,206,760.7869873046875C192,760.7869873046875,179,760.7869873046875,165,760.7869873046875C151,760.7869873046875,137,760.7869873046875,123,760.7869873046875C109,760.7869873046875,95,760.7869873046875,81,760.7869873046875C67,760.7869873046875,54,760.7869873046875,40,760.7869873046875C26,760.7869873046875,12,760.7869873046875,5,760.7869873046875L-2,760.7869873046875L-2,692.7869873046875ZZ" fill="url(#fill-0-render-7)" fill-rule="evenodd"/></g><g fill-rule="evenodd" id="strokes-add8f606-cf41-80d8-8007-7f77df7c3aee-f328201f-f02a-80eb-8007-7f76823170e3" class="strokes"><g class="stroke-shape"><path d="M-2,692.7869873046875L5,700.7869873046875C12,707.7869873046875,26,722.7869873046875,40,715.7869873046875C54,707.7869873046875,67,677.7869873046875,81,673.7869873046875C95,670.7869873046875,109,692.7869873046875,123,702.7869873046875C137,711.7869873046875,151,707.7869873046875,165,698.7869873046875C179,688.7869873046875,192,673.7869873046875,206,673.7869873046875C220,673.7869873046875,234,688.7869873046875,248,688.7869873046875C262,688.7869873046875,276,673.7869873046875,290,668.7869873046875C304,662.7869873046875,317,666.7869873046875,331,677.7869873046875C345,688.7869873046875,359,707.7869873046875,366,717.7869873046875L373,726.7869873046875L373,760.7869873046875L366,760.7869873046875C359,760.7869873046875,345,760.7869873046875,331,760.7869873046875C317,760.7869873046875,304,760.7869873046875,290,760.7869873046875C276,760.7869873046875,262,760.7869873046875,248,760.7869873046875C234,760.7869873046875,220,760.7869873046875,206,760.7869873046875C192,760.7869873046875,179,760.7869873046875,165,760.7869873046875C151,760.7869873046875,137,760.7869873046875,123,760.7869873046875C109,760.7869873046875,95,760.7869873046875,81,760.7869873046875C67,760.7869873046875,54,760.7869873046875,40,760.7869873046875C26,760.7869873046875,12,760.7869873046875,5,760.7869873046875L-2,760.7869873046875L-2,692.7869873046875ZZ" style="fill: none; stroke-width: 0; stroke: rgb(0, 0, 0); stroke-opacity: 1;"/></g></g></g></g></g></g></g></g></g></svg>