<svg width="375" height="812" viewBox="0 0 375 812" fill="none" xmlns="http://www.w3.org/2000/svg">
<g clip-path="url(#clip0_347_31)">
<rect width="375" height="812" fill="white"/>
<rect y="359" width="375" height="453" fill="#FED766"/>
<rect y="683" width="375" height="135" fill="#0099FF" fill-opacity="0.85"/>
<rect y="683" width="375" height="135" fill="url(#paint0_linear_347_31)"/>
<rect width="375" height="359" fill="#89AAE6" fill-opacity="0.79"/>
<path fill-rule="evenodd" clip-rule="evenodd" d="M0 666.235H10C21 666.235 42 666.235 63 653.434C83 640.633 104 613.868 125 605.722C146 596.413 167 605.722 188 620.851C208 635.979 229 658.089 250 658.089C271 658.089 292 635.979 313 631.324C333 627.833 354 640.633 365 646.452L375 653.434V693H365C354 693 333 693 313 693C292 693 271 693 250 693C229 693 208 693 188 693C167 693 146 693 125 693C104 693 83 693 63 693C42 693 21 693 10 693H0V666.235Z" fill="#0099FF"/>
<path fill-rule="evenodd" clip-rule="evenodd" d="M0 666.235H10C21 666.235 42 666.235 63 653.434C83 640.633 104 613.868 125 605.722C146 596.413 167 605.722 188 620.851C208 635.979 229 658.089 250 658.089C271 658.089 292 635.979 313 631.324C333 627.833 354 640.633 365 646.452L375 653.434V693H365C354 693 333 693 313 693C292 693 271 693 250 693C229 693 208 693 188 693C167 693 146 693 125 693C104 693 83 693 63 693C42 693 21 693 10 693H0V666.235Z" fill="url(#paint1_radial_347_31)"/>
<path fill-rule="evenodd" clip-rule="evenodd" d="M0 666.235H10C21 666.235 42 666.235 63 653.434C83 640.633 104 613.868 125 605.722C146 596.413 167 605.722 188 620.851C208 635.979 229 658.089 250 658.089C271 658.089 292 635.979 313 631.324C333 627.833 354 640.633 365 646.452L375 653.434V693H365C354 693 333 693 313 693C292 693 271 693 250 693C229 693 208 693 188 693C167 693 146 693 125 693C104 693 83 693 63 693C42 693 21 693 10 693H0V666.235Z" stroke="black"/>
<path fill-rule="evenodd" clip-rule="evenodd" d="M-2 257L14 269C29 280 61 303 92 318C123 333 154 340 186 331C217 321 248 295 279 295C311 295 342 321 357 335L373 348V359H357C342 359 311 359 279 359C248 359 217 359 186 359C154 359 123 359 92 359C61 359 29 359 14 359H-2V257Z" fill="#E1B63A"/>
<path fill-rule="evenodd" clip-rule="evenodd" d="M-2 257L14 269C29 280 61 303 92 318C123 333 154 340 186 331C217 321 248 295 279 295C311 295 342 321 357 335L373 348V359H357C342 359 311 359 279 359C248 359 217 359 186 359C154 359 123 359 92 359C61 359 29 359 14 359H-2V257Z" fill="url(#paint2_linear_347_31)"/>
<path fill-rule="evenodd" clip-rule="evenodd" d="M-2 257L14 269C29 280 61 303 92 318C123 333 154 340 186 331C217 321 248 295 279 295C311 295 342 321 357 335L373 348V359H357C342 359 311 359 279 359C248 359 217 359 186 359C154 359 123 359 92 359C61 359 29 359 14 359H-2V257Z" stroke="black"/>
<path fill-rule="evenodd" clip-rule="evenodd" d="M-2 692.787L5 700.787C12 707.787 26 722.787 40 715.787C54 707.787 67 677.787 81 673.787C95 670.787 109 692.787 123 702.787C137 711.787 151 707.787 165 698.787C179 688.787 192 673.787 206 673.787C220 673.787 234 688.787 248 688.787C262 688.787 276 673.787 290 668.787C304 662.787 317 666.787 331 677.787C345 688.787 359 707.787 366 717.787L373 726.787V760.787H366C359 760.787 345 760.787 331 760.787C317 760.787 304 760.787 290 760.787C276 760.787 262 760.787 248 760.787C234 760.787 220 760.787 206 760.787C192 760.787 179 760.787 165 760.787C151 760.787 137 760.787 123 760.787C109 760.787 95 760.787 81 760.787C67 760.787 54 760.787 40 760.787C26 760.787 12 760.787 5 760.787H-2V692.787Z" fill="#0099FF"/>
<path fill-rule="evenodd" clip-rule="evenodd" d="M-2 692.787L5 700.787C12 707.787 26 722.787 40 715.787C54 707.787 67 677.787 81 673.787C95 670.787 109 692.787 123 702.787C137 711.787 151 707.787 165 698.787C179 688.787 192 673.787 206 673.787C220 673.787 234 688.787 248 688.787C262 688.787 276 673.787 290 668.787C304 662.787 317 666.787 331 677.787C345 688.787 359 707.787 366 717.787L373 726.787V760.787H366C359 760.787 345 760.787 331 760.787C317 760.787 304 760.787 290 760.787C276 760.787 262 760.787 248 760.787C234 760.787 220 760.787 206 760.787C192 760.787 179 760.787 165 760.787C151 760.787 137 760.787 123 760.787C109 760.787 95 760.787 81 760.787C67 760.787 54 760.787 40 760.787C26 760.787 12 760.787 5 760.787H-2V692.787Z" fill="url(#paint3_radial_347_31)"/>
<path fill-rule="evenodd" clip-rule="evenodd" d="M-2 692.787L5 700.787C12 707.787 26 722.787 40 715.787C54 707.787 67 677.787 81 673.787C95 670.787 109 692.787 123 702.787C137 711.787 151 707.787 165 698.787C179 688.787 192 673.787 206 673.787C220 673.787 234 688.787 248 688.787C262 688.787 276 673.787 290 668.787C304 662.787 317 666.787 331 677.787C345 688.787 359 707.787 366 717.787L373 726.787V760.787H366C359 760.787 345 760.787 331 760.787C317 760.787 304 760.787 290 760.787C276 760.787 262 760.787 248 760.787C234 760.787 220 760.787 206 760.787C192 760.787 179 760.787 165 760.787C151 760.787 137 760.787 123 760.787C109 760.787 95 760.787 81 760.787C67 760.787 54 760.787 40 760.787C26 760.787 12 760.787 5 760.787H-2V692.787Z" stroke="black"/>
</g>
<defs>
<linearGradient id="paint0_linear_347_31" x1="146" y1="600.5" x2="-156.754" y2="753.54" gradientUnits="userSpaceOnUse">
<stop offset="0.188258" stop-color="white" stop-opacity="0.38"/>
<stop offset="0.927571" stop-color="white" stop-opacity="0"/>
</linearGradient>
<radialGradient id="paint1_radial_347_31" cx="0" cy="0" r="1" gradientTransform="matrix(149.338 64.4386 -265.544 670.258 158.432 628.475)" gradientUnits="userSpaceOnUse">
<stop offset="0.349102" stop-color="white" stop-opacity="0.51"/>
<stop offset="1" stop-color="white" stop-opacity="0"/>
</radialGradient>
<linearGradient id="paint2_linear_347_31" x1="185.5" y1="257" x2="185.5" y2="359" gradientUnits="userSpaceOnUse">
<stop stop-color="white"/>
<stop offset="1" stop-color="white" stop-opacity="0"/>
</linearGradient>
<radialGradient id="paint3_radial_347_31" cx="0" cy="0" r="1" gradientUnits="userSpaceOnUse" gradientTransform="translate(186 652.5) rotate(94.6669) scale(147.489 583.502)">
<stop stop-color="white" stop-opacity="0.88"/>
<stop offset="1" stop-color="white" stop-opacity="0"/>
</radialGradient>
<clipPath id="clip0_347_31">
<rect width="375" height="812" fill="white"/>
</clipPath>
</defs>
</svg>
