<svg width="1980" xmlns="http://www.w3.org/2000/svg" height="1024" id="screenshot-f328201f-f02a-80eb-8007-7f77f13b2684" viewBox="0 0 1980 1024" xmlns:xlink="http://www.w3.org/1999/xlink" fill="none" version="1.1"><g id="shape-f328201f-f02a-80eb-8007-7f77f13b2684"><defs><clipPath id="frame-clip-f328201f-f02a-80eb-8007-7f77f13b2684-render-1" class="frame-clip frame-clip-def"><rect rx="0" ry="0" x="0" y="0" width="1980" height="1024" transform="matrix(1.000000, 0.000000, 0.000000, 1.000000, 0.000000, 0.000000)"/></clipPath></defs><g class="frame-container-wrapper" opacity="1"><g class="frame-container-blur"><g class="frame-container-shadows"><g clip-path="url(#frame-clip-f328201f-f02a-80eb-8007-7f77f13b2684-render-1)" fill="none"><g class="fills" id="fills-f328201f-f02a-80eb-8007-7f77f13b2684"><rect width="1980" height="1024" class="frame-background" x="0" transform="matrix(1.000000, 0.000000, 0.000000, 1.000000, 0.000000, 0.000000)" style="fill: rgb(31, 19, 39); fill-opacity: 1;" ry="0" rx="0" y="0"/></g><g class="frame-children"><g id="shape-f328201f-f02a-80eb-8007-7f77f13b2685" style="opacity: 1;"><defs><linearGradient id="fill-color-gradient-render-2-0" x1="0.49999999999999994" y1="-3.0616171314629196e-17" x2="0.49999999999999994" y2="0.9999999999999999" gradientTransform=""><stop offset="0" stop-color="#ffefc1" stop-opacity="1"/><stop offset="1" stop-color="#fed766" stop-opacity="1"/></linearGradient><pattern patternUnits="userSpaceOnUse" x="0" y="338.9997447513142" width="1980" height="347.0002552486858" patternTransform="matrix(1.000000, 0.000000, 0.000000, 1.000000, 0.000000, 0.000000)" id="fill-0-render-2"><g><rect width="1980" height="347.0002552486858" style="fill: url(&quot;#fill-color-gradient-render-2-0&quot;); fill-opacity: 1;"/></g></pattern></defs><g class="fills" id="fills-f328201f-f02a-80eb-8007-7f77f13b2685"><path d="M0,444.381103515625L66,411.839111328125C132,380.111083984375,264,315.842041015625,396,347.570068359375C528,380.111083984375,660,508.64990234375,792,533.055908203125C924,557.4619140625,1056,476.922119140625,1188,419.97509765625C1320,363.841064453125,1452,331.299072265625,1584,363.841064453125C1716,396.382080078125,1848,492.37890625,1914,541.19091796875L1980,589.18994140625L1980,686L1914,686C1848,686,1716,686,1584,686C1452,686,1320,686,1188,686C1056,686,924,686,792,686C660,686,528,686,396,686C264,686,132,686,66,686L0,686L0,444.381103515625ZZ" fill="url(#fill-0-render-2)" fill-rule="evenodd"/></g><g fill-rule="evenodd" id="strokes-ea748707-4e47-8001-8007-8d86d46d968f-f328201f-f02a-80eb-8007-7f77f13b2685" class="strokes"><g class="stroke-shape"><path d="M0,444.381103515625L66,411.839111328125C132,380.111083984375,264,315.842041015625,396,347.570068359375C528,380.111083984375,660,508.64990234375,792,533.055908203125C924,557.4619140625,1056,476.922119140625,1188,419.97509765625C1320,363.841064453125,1452,331.299072265625,1584,363.841064453125C1716,396.382080078125,1848,492.37890625,1914,541.19091796875L1980,589.18994140625L1980,686L1914,686C1848,686,1716,686,1584,686C1452,686,1320,686,1188,686C1056,686,924,686,792,686C660,686,528,686,396,686C264,686,132,686,66,686L0,686L0,444.381103515625ZZ" style="fill: none; stroke-width: 3; stroke: rgb(0, 0, 0); stroke-opacity: 1;"/></g></g></g><g id="shape-f328201f-f02a-80eb-8007-7f77f13b2686" style="opacity: 1;"><defs><linearGradient id="fill-color-gradient-render-3-0" x1="0.38933334096256267" y1="-0.6111110637643624" x2="-0.4733333180571465" y2="0.21851827396235546" gradientTransform=""><stop offset="0.18825781345367432" stop-color="#ffffff" stop-opacity="0.3799999952316284"/><stop offset="0.9275708794593811" stop-color="#ffffff" stop-opacity="0"/></linearGradient><pattern patternUnits="userSpaceOnUse" x="0" y="826" width="1980" height="198" id="fill-0-render-3"><g><rect width="1980" height="198" style="fill: rgb(23, 86, 188); fill-opacity: 0.85;"/><rect width="1980" height="198" style="fill: url(&quot;#fill-color-gradient-render-3-0&quot;); fill-opacity: 1;"/></g></pattern></defs><g class="fills" id="fills-f328201f-f02a-80eb-8007-7f77f13b2686"><rect rx="0" ry="0" x="0" y="826" transform="matrix(1.000000, 0.000000, 0.000000, 1.000000, 0.000000, 0.000000)" width="1980" height="198" fill="url(#fill-0-render-3)"/></g></g><g id="shape-f328201f-f02a-80eb-8007-7f77f13b2687" style="opacity: 1;"><g class="fills" id="fills-f328201f-f02a-80eb-8007-7f77f13b2687"><rect rx="0" ry="0" x="0" y="607" transform="matrix(1.000000, 0.000000, 0.000000, 1.000000, 0.000000, 0.000000)" width="1980" height="219" style="fill: rgb(254, 215, 102); fill-opacity: 1;"/></g><g id="strokes-ea748707-4e47-8001-8007-8d86d46edb78-f328201f-f02a-80eb-8007-7f77f13b2687" class="strokes"><g class="inner-stroke-shape" transform="matrix(1.000000, 0.000000, 0.000000, 1.000000, 0.000000, 0.000000)"><defs><clipPath id="inner-stroke-render-4-f328201f-f02a-80eb-8007-7f77f13b2687-0"><use href="#stroke-shape-render-4-f328201f-f02a-80eb-8007-7f77f13b2687-0"/></clipPath><rect rx="0" ry="0" x="0" y="607" width="1980" height="219" id="stroke-shape-render-4-f328201f-f02a-80eb-8007-7f77f13b2687-0" style="fill: none; stroke-width: 2; stroke: rgb(0, 0, 0); stroke-opacity: 1;"/></defs><use href="#stroke-shape-render-4-f328201f-f02a-80eb-8007-7f77f13b2687-0" clip-path="url('#inner-stroke-render-4-f328201f-f02a-80eb-8007-7f77f13b2687-0')"/></g></g></g><g id="shape-f328201f-f02a-80eb-8007-7f77f13b2688" style="opacity: 1;"><defs><linearGradient id="fill-color-gradient-render-5-0" x1="0.4707070542465366" y1="2.1542855805795558" x2="0.4585859076453329" y2="-0.9600000148247902" gradientTransform=""><stop offset="0" stop-color="#1756bc" stop-opacity="1"/><stop offset="1" stop-color="#c2e7ff" stop-opacity="1"/></linearGradient><pattern patternUnits="userSpaceOnUse" x="0" y="738.000105205444" width="1980" height="175.99989479455598" patternTransform="matrix(1.000000, 0.000000, 0.000000, 1.000000, 0.000000, 0.000000)" id="fill-0-render-5"><g><rect width="1980" height="175.99989479455598" style="fill: url(&quot;#fill-color-gradient-render-5-0&quot;); fill-opacity: 1;"/></g></pattern></defs><g class="fills" id="fills-f328201f-f02a-80eb-8007-7f77f13b2688"><path d="M0,817.181884765625L47,807.402099609375C94,797.948974609375,189,778.388916015625,283,794.68896484375C377,810.662109375,471,862.493896484375,566,871.947998046875C660,881.72705078125,754,849.455078125,849,823.701904296875C943,797.948974609375,1037,778.388916015625,1131,762.416015625C1226,746.116943359375,1320,733.403076171875,1414,739.596923828125C1509,746.116943359375,1603,771.8701171875,1697,794.68896484375C1791,817.181884765625,1886,836.4150390625,1933,846.195068359375L1980,855.97412109375L1980,914L1933,914C1886,914,1791,914,1697,914C1603,914,1509,914,1414,914C1320,914,1226,914,1131,914C1037,914,943,914,849,914C754,914,660,914,566,914C471,914,377,914,283,914C189,914,94,914,47,914L0,914L0,817.181884765625ZZ" fill="url(#fill-0-render-5)" fill-rule="evenodd"/></g><g fill-rule="evenodd" id="strokes-ea748707-4e47-8001-8007-8d86d46f90f1-f328201f-f02a-80eb-8007-7f77f13b2688" class="strokes"><g class="stroke-shape"><path d="M0,817.181884765625L47,807.402099609375C94,797.948974609375,189,778.388916015625,283,794.68896484375C377,810.662109375,471,862.493896484375,566,871.947998046875C660,881.72705078125,754,849.455078125,849,823.701904296875C943,797.948974609375,1037,778.388916015625,1131,762.416015625C1226,746.116943359375,1320,733.403076171875,1414,739.596923828125C1509,746.116943359375,1603,771.8701171875,1697,794.68896484375C1791,817.181884765625,1886,836.4150390625,1933,846.195068359375L1980,855.97412109375L1980,914L1933,914C1886,914,1791,914,1697,914C1603,914,1509,914,1414,914C1320,914,1226,914,1131,914C1037,914,943,914,849,914C754,914,660,914,566,914C471,914,377,914,283,914C189,914,94,914,47,914L0,914L0,817.181884765625ZZ" style="fill: none; stroke-width: 1; stroke: rgb(0, 0, 0); stroke-opacity: 1;"/></g></g></g><g id="shape-f328201f-f02a-80eb-8007-7f77f13b2689" rx="0" ry="0"><g id="shape-f328201f-f02a-80eb-8007-7f77f13b268a" style="opacity: 1;"><defs><linearGradient id="fill-color-gradient-render-7-0" x1="0.5060606002472253" y1="0.2774868975867115" x2="0.5000000178157233" y2="0.999999896735043" gradientTransform=""><stop offset="0" stop-color="#1756bc" stop-opacity="1"/><stop offset="1" stop-color="#0099ff" stop-opacity="0"/></linearGradient><pattern patternUnits="userSpaceOnUse" x="0" y="833.0002946927702" width="1980" height="190.99970530722976" patternTransform="matrix(1.000000, 0.000000, 0.000000, 1.000000, 0.000000, 0.000000)" id="fill-0-render-7"><g><rect width="1980" height="190.99970530722976" style="fill: url(&quot;#fill-color-gradient-render-7-0&quot;); fill-opacity: 1;"/></g></pattern></defs><g class="fills" id="fills-f328201f-f02a-80eb-8007-7f77f13b268a"><path d="M1980,970.044921875L1925,943.2939453125C1870,916.090087890625,1760,862.589111328125,1650,858.054931640625C1540,853.52099609375,1430,898.407958984375,1320,920.6240234375C1210,943.2939453125,1100,943.2939453125,990,929.69189453125C880,916.090087890625,770,889.340087890625,660,867.123046875C550,844.452880859375,440,826.31689453125,330,835.385009765625C220,844.452880859375,110,880.27099609375,55,898.407958984375L0,916.090087890625L0,1024L55,1024C110,1024,220,1024,330,1024C440,1024,550,1024,660,1024C770,1024,880,1024,990,1024C1100,1024,1210,1024,1320,1024C1430,1024,1540,1024,1650,1024C1760,1024,1870,1024,1925,1024L1980,1024L1980,970.044921875ZZ" fill="url(#fill-0-render-7)" fill-rule="evenodd"/></g><g fill-rule="evenodd" id="strokes-ea748707-4e47-8001-8007-8d86d4708eaf-f328201f-f02a-80eb-8007-7f77f13b268a" class="strokes"><g class="stroke-shape"><path d="M1980,970.044921875L1925,943.2939453125C1870,916.090087890625,1760,862.589111328125,1650,858.054931640625C1540,853.52099609375,1430,898.407958984375,1320,920.6240234375C1210,943.2939453125,1100,943.2939453125,990,929.69189453125C880,916.090087890625,770,889.340087890625,660,867.123046875C550,844.452880859375,440,826.31689453125,330,835.385009765625C220,844.452880859375,110,880.27099609375,55,898.407958984375L0,916.090087890625L0,1024L55,1024C110,1024,220,1024,330,1024C440,1024,550,1024,660,1024C770,1024,880,1024,990,1024C1100,1024,1210,1024,1320,1024C1430,1024,1540,1024,1650,1024C1760,1024,1870,1024,1925,1024L1980,1024L1980,970.044921875ZZ" style="fill: none; stroke-width: 2; stroke: rgb(255, 255, 255); stroke-opacity: 1;"/></g></g></g><g id="shape-f328201f-f02a-80eb-8007-7f77f13b268b" style="opacity: 1;"><defs><linearGradient id="fill-color-gradient-render-8-0" x1="0.5060606002472253" y1="0.2774868975867115" x2="0.5000000178157233" y2="0.999999896735043" gradientTransform=""><stop offset="0" stop-color="#1756bc" stop-opacity="1"/><stop offset="1" stop-color="#0099ff" stop-opacity="0"/></linearGradient><pattern patternUnits="userSpaceOnUse" x="0" y="833.0002946927702" width="1980" height="190.99970530722976" patternTransform="matrix(1.000000, 0.000000, 0.000000, 1.000000, 0.000000, 0.000000)" id="fill-0-render-8"><g><rect width="1980" height="190.99970530722976" style="fill: url(&quot;#fill-color-gradient-render-8-0&quot;); fill-opacity: 1;"/></g></pattern></defs><g class="fills" id="fills-f328201f-f02a-80eb-8007-7f77f13b268b"><path d="M1980,970.044921875L1925,943.2939453125C1870,916.090087890625,1760,862.589111328125,1650,858.054931640625C1540,853.52099609375,1430,898.407958984375,1320,920.6240234375C1210,943.2939453125,1100,943.2939453125,990,929.69189453125C880,916.090087890625,770,889.340087890625,660,867.123046875C550,844.452880859375,440,826.31689453125,330,835.385009765625C220,844.452880859375,110,880.27197265625,55,898.407958984375L0,916.090087890625L0,1024L55,1024C110,1024,220,1024,330,1024C440,1024,550,1024,660,1024C770,1024,880,1024,990,1024C1100,1024,1210,1024,1320,1024C1430,1024,1540,1024,1650,1024C1760,1024,1870,1024,1925,1024L1980,1024L1980,970.044921875ZZ" fill="url(#fill-0-render-8)" fill-rule="evenodd"/></g><g fill-rule="evenodd" id="strokes-ea748707-4e47-8001-8007-8d86d471494b-f328201f-f02a-80eb-8007-7f77f13b268b" class="strokes"><g class="stroke-shape"><path d="M1980,970.044921875L1925,943.2939453125C1870,916.090087890625,1760,862.589111328125,1650,858.054931640625C1540,853.52099609375,1430,898.407958984375,1320,920.6240234375C1210,943.2939453125,1100,943.2939453125,990,929.69189453125C880,916.090087890625,770,889.340087890625,660,867.123046875C550,844.452880859375,440,826.31689453125,330,835.385009765625C220,844.452880859375,110,880.27197265625,55,898.407958984375L0,916.090087890625L0,1024L55,1024C110,1024,220,1024,330,1024C440,1024,550,1024,660,1024C770,1024,880,1024,990,1024C1100,1024,1210,1024,1320,1024C1430,1024,1540,1024,1650,1024C1760,1024,1870,1024,1925,1024L1980,1024L1980,970.044921875ZZ" style="fill: none; stroke-width: 2; stroke: rgb(255, 255, 255); stroke-opacity: 1;"/></g></g></g></g></g></g></g></g></g></g></svg>